{
  "source": "C:\\Users\\Peter\\Desktop\\stuff\\MIUN\\quantitative_research\\video_compression\\videos\\BVI-HD\\BVI-HD_CDVL_videos\\ORIG\\Typing_1920x1080_60fps.mp4",
  "output": "C:\\Users\\Peter\\Desktop\\stuff\\MIUN\\quantitative_research\\video_compression\\compressed_videos\\BVI-HD\\av1\\1.5\\Typing_1920x1080_60fps_av1.mkv",
  "codec": "av1",
  "ok": "Input #0, mov,mp4,m4a,3gp,3g2,mj2, from 'C:\\Users\\Peter\\Desktop\\stuff\\MIUN\\quantitative_research\\video_compression\\videos\\BVI-HD\\BVI-HD_CDVL_videos\\ORIG\\Typing_1920x1080_60fps.mp4':\n  Metadata:\n    major_brand     : isom\n    minor_version   : 512\n    compatible_brands: isomiso2avc1mp41\n    encoder         : Lavf54.28.101\n  Duration: 00:00:05.00, start: 0.000000, bitrate: 203453 kb/s\n  Stream #0:0[0x1](und): Video: h264 (High 4:4:4 Predictive) (avc1 / 0x31637661), yuv420p(progressive), 1920x1080, 203448 kb/s, 60 fps, 60 tbr, 60 tbn (default)\n    Metadata:\n      handler_name    : VideoHandler\n      vendor_id       : [0][0][0][0]\n[out#0/matroska @ 00000186de191300] Codec AVOption b:a (set bitrate (in bits/s)) has not been used for any stream. The most likely reason is either wrong type (e.g. a video option with no video streams) or that it is a private option of some decoder which was not actually used for any stream.\nStream mapping:\n  Stream #0:0 -> #0:0 (h264 (native) -> av1 (libsvtav1))\nPress [q] to stop, [?] for help\nSvt[info]: -------------------------------------------\nSvt[info]: SVT [version]:\tSVT-AV1 Encoder Lib v3.1.0-19-g6ecfe8ec\nSvt[info]: SVT [build]  :\tGCC 15.2.0\t 64 bit\nSvt[info]: LIB Build date: Aug 17 2025 11:37:13\nSvt[info]: -------------------------------------------\nSvt[info]: Level of Parallelism: 5\nSvt[info]: Number of PPCS 93\nSvt[info]: [asm level on system : up to avx2]\nSvt[info]: [asm level selected : up to avx2]\nSvt[info]: -------------------------------------------\nSvt[info]: SVT [config]: main profile\ttier (auto)\tlevel (auto)\nSvt[info]: SVT [config]: width / height / fps numerator / fps denominator \t\t: 1920 / 1080 / 60 / 1\nSvt[info]: SVT [config]: bit-depth / color format \t\t\t\t\t: 8 / YUV420\nSvt[info]: SVT [config]: preset / tune / pred struct \t\t\t\t\t: 4 / PSNR / random access\nSvt[info]: SVT [config]: gop size / mini-gop size / key-frame type \t\t\t: 321 / 16 / key frame\nSvt[info]: SVT [config]: BRC mode / target bitrate (kbps)\t\t\t\t: VBR / 1500 \nSvt[info]: SVT [config]: AQ mode / Variance Boost \t\t\t\t\t: 2 / 0\nSvt[info]: SVT [config]: sharpness / luminance-based QP bias \t\t\t\t: 0 / 0\nSvt[info]: SVT [config]: QP scale compress strength \t\t\t\t\t: 0\nSvt[info]: -------------------------------------------\nOutput #0, matroska, to 'C:\\Users\\Peter\\Desktop\\stuff\\MIUN\\quantitative_research\\video_compression\\compressed_videos\\BVI-HD\\av1\\1.5\\Typing_1920x1080_60fps_av1.mkv':\n  Metadata:\n    major_brand     : isom\n    minor_version   : 512\n    compatible_brands: isomiso2avc1mp41\n    encoder         : Lavf62.3.100\n  Stream #0:0(und): Video: av1 (AV01 / 0x31305641), yuv420p(tv, progressive), 1920x1080, q=2-31, 1500 kb/s, 60 fps, 1k tbn (default)\n    Metadata:\n      encoder         : Lavc62.11.100 libsvtav1\n      handler_name    : VideoHandler\n      vendor_id       : [0][0][0][0]\n    Side data:\n      cpb: bitrate max/min/avg: 0/0/1500000 buffer size: 1500000 vbv_delay: N/A\nframe=    0 fps=0.0 q=0.0 size=       0KiB time=N/A bitrate=N/A speed=N/A elapsed=0:00:01.05    \nframe=    0 fps=0.0 q=0.0 size=       0KiB time=N/A bitrate=N/A speed=N/A elapsed=0:00:01.57    \nframe=    0 fps=0.0 q=0.0 size=       0KiB time=N/A bitrate=N/A speed=N/A elapsed=0:00:02.13    \nframe=    0 fps=0.0 q=0.0 size=       0KiB time=N/A bitrate=N/A speed=N/A elapsed=0:00:02.66    \nframe=    0 fps=0.0 q=0.0 size=       0KiB time=N/A bitrate=N/A speed=N/A elapsed=0:00:03.24    \nframe=    0 fps=0.0 q=0.0 size=       0KiB time=N/A bitrate=N/A speed=N/A elapsed=0:00:03.81    \nframe=    0 fps=0.0 q=0.0 size=       0KiB time=N/A bitrate=N/A speed=N/A elapsed=0:00:04.33    \nframe=    0 fps=0.0 q=0.0 size=       0KiB time=N/A bitrate=N/A speed=N/A elapsed=0:00:04.88    \nframe=    0 fps=0.0 q=0.0 size=       0KiB time=N/A bitrate=N/A speed=N/A elapsed=0:00:05.42    \nframe=    0 fps=0.0 q=0.0 size=       0KiB time=N/A bitrate=N/A speed=N/A elapsed=0:00:05.94    \nframe=    1 fps=0.2 q=10.0 size=       1KiB time=00:00:00.00 bitrate=N/A speed=   0x elapsed=0:00:06.47    \nframe=    1 fps=0.1 q=10.0 size=       1KiB time=00:00:00.00 bitrate=N/A speed=   0x elapsed=0:00:07.00    \nframe=    7 fps=0.9 q=40.0 size=       1KiB time=00:00:00.10 bitrate=  57.0kbits/s speed=0.0133x elapsed=0:00:07.52    \nframe=   11 fps=1.4 q=39.0 size=       1KiB time=00:00:00.15 bitrate=  38.0kbits/s speed=0.0185x elapsed=0:00:08.09    \nframe=   17 fps=2.0 q=29.0 size=       1KiB time=00:00:00.25 bitrate=  22.8kbits/s speed=0.0288x elapsed=0:00:08.66    \nframe=   21 fps=2.3 q=38.0 size=       1KiB time=00:00:00.33 bitrate=  17.1kbits/s speed=0.0362x elapsed=0:00:09.19    \nframe=   25 fps=2.6 q=36.0 size=       1KiB time=00:00:00.40 bitrate=  14.2kbits/s speed=0.0412x elapsed=0:00:09.72    \nframe=   32 fps=3.1 q=36.0 size=       1KiB time=00:00:00.50 bitrate=  11.4kbits/s speed=0.0488x elapsed=0:00:10.24    \nframe=   37 fps=3.4 q=38.0 size=       1KiB time=00:00:00.60 bitrate=   9.5kbits/s speed=0.0555x elapsed=0:00:10.80    \nframe=   42 fps=3.7 q=35.0 size=       1KiB time=00:00:00.68 bitrate=   8.3kbits/s speed=0.0603x elapsed=0:00:11.32    \nframe=   48 fps=4.0 q=34.0 size=       1KiB time=00:00:00.78 bitrate=   7.3kbits/s speed=0.0659x elapsed=0:00:11.88    \nframe=   54 fps=4.3 q=32.0 size=       1KiB time=00:00:00.86 bitrate=   6.6kbits/s speed=0.0698x elapsed=0:00:12.41    \nframe=   57 fps=4.4 q=32.0 size=       1KiB time=00:00:00.93 bitrate=   6.1kbits/s speed=0.0721x elapsed=0:00:12.94    \nframe=   62 fps=4.6 q=32.0 size=       1KiB time=00:00:01.00 bitrate=   5.7kbits/s speed=0.0743x elapsed=0:00:13.46    \nframe=   68 fps=4.9 q=35.0 size=       1KiB time=00:00:01.10 bitrate=   5.2kbits/s speed=0.0785x elapsed=0:00:14.00    \nframe=   72 fps=4.9 q=35.0 size=       1KiB time=00:00:01.16 bitrate=   4.9kbits/s speed=0.0799x elapsed=0:00:14.59    \nframe=   76 fps=5.0 q=34.0 size=       1KiB time=00:00:01.25 bitrate=   4.6kbits/s speed=0.0824x elapsed=0:00:15.17    \nframe=   81 fps=5.2 q=13.0 size=       1KiB time=00:00:01.33 bitrate=   4.3kbits/s speed=0.0848x elapsed=0:00:15.72    \nframe=   86 fps=5.3 q=34.0 size=       1KiB time=00:00:01.41 bitrate=   4.0kbits/s speed=0.087x elapsed=0:00:16.28    \nframe=   90 fps=5.4 q=33.0 size=       1KiB time=00:00:01.48 bitrate=   3.8kbits/s speed=0.0883x elapsed=0:00:16.80    \nframe=   95 fps=5.5 q=37.0 size=       1KiB time=00:00:01.55 bitrate=   3.7kbits/s speed=0.0895x elapsed=0:00:17.32    \nframe=  101 fps=5.6 q=36.0 size=       1KiB time=00:00:01.66 bitrate=   3.4kbits/s speed=0.0931x elapsed=0:00:17.90    \nframe=  105 fps=5.7 q=22.0 size=       1KiB time=00:00:01.73 bitrate=   3.3kbits/s speed=0.0941x elapsed=0:00:18.42    \nframe=  112 fps=5.9 q=37.0 size=       1KiB time=00:00:01.85 bitrate=   3.1kbits/s speed=0.0974x elapsed=0:00:18.99    \nframe=  116 fps=5.9 q=32.0 size=       1KiB time=00:00:01.91 bitrate=   3.0kbits/s speed=0.0981x elapsed=0:00:19.53    \nframe=  119 fps=5.9 q=34.0 size=       1KiB time=00:00:01.96 bitrate=   2.9kbits/s speed=0.098x elapsed=0:00:20.05    \nframe=  123 fps=6.0 q=33.0 size=       1KiB time=00:00:02.03 bitrate=   2.8kbits/s speed=0.0988x elapsed=0:00:20.57    \nframe=  129 fps=6.1 q=15.0 size=       1KiB time=00:00:02.11 bitrate=   2.7kbits/s speed= 0.1x elapsed=0:00:21.17    \nframe=  133 fps=6.1 q=35.0 size=       1KiB time=00:00:02.20 bitrate=   2.6kbits/s speed=0.101x elapsed=0:00:21.75    \nframe=  137 fps=6.1 q=22.0 size=       1KiB time=00:00:02.26 bitrate=   2.5kbits/s speed=0.101x elapsed=0:00:22.33    \nframe=  143 fps=6.3 q=37.0 size=       1KiB time=00:00:02.36 bitrate=   2.4kbits/s speed=0.104x elapsed=0:00:22.85    \nframe=  151 fps=6.5 q=39.0 size=       1KiB time=00:00:02.48 bitrate=   2.3kbits/s speed=0.106x elapsed=0:00:23.37    \nframe=  159 fps=6.6 q=37.0 size=       1KiB time=00:00:02.61 bitrate=   2.2kbits/s speed=0.109x elapsed=0:00:23.94    \nframe=  165 fps=6.7 q=36.0 size=       1KiB time=00:00:02.73 bitrate=   2.1kbits/s speed=0.112x elapsed=0:00:24.51    \nframe=  172 fps=6.9 q=30.0 size=       1KiB time=00:00:02.81 bitrate=   2.0kbits/s speed=0.113x elapsed=0:00:25.03    \nframe=  177 fps=6.9 q=16.0 size=       1KiB time=00:00:02.93 bitrate=   1.9kbits/s speed=0.115x elapsed=0:00:25.61    \nframe=  182 fps=7.0 q=29.0 size=       1KiB time=00:00:03.01 bitrate=   1.9kbits/s speed=0.115x elapsed=0:00:26.13    \nframe=  185 fps=6.9 q=22.0 size=       1KiB time=00:00:03.06 bitrate=   1.9kbits/s speed=0.115x elapsed=0:00:26.68    \nframe=  189 fps=6.9 q=30.0 size=       1KiB time=00:00:03.13 bitrate=   1.8kbits/s speed=0.115x elapsed=0:00:27.19    \nframe=  195 fps=7.0 q=35.0 size=       1KiB time=00:00:03.23 bitrate=   1.8kbits/s speed=0.117x elapsed=0:00:27.72    \nframe=  199 fps=7.0 q=34.0 size=       1KiB time=00:00:03.30 bitrate=   1.7kbits/s speed=0.117x elapsed=0:00:28.24    \nframe=  205 fps=7.1 q=34.0 size=       1KiB time=00:00:03.40 bitrate=   1.7kbits/s speed=0.118x elapsed=0:00:28.76    \nframe=  211 fps=7.2 q=36.0 size=       1KiB time=00:00:03.50 bitrate=   1.6kbits/s speed=0.12x elapsed=0:00:29.28    \nframe=  217 fps=7.3 q=24.0 size=       1KiB time=00:00:03.60 bitrate=   1.6kbits/s speed=0.121x elapsed=0:00:29.83    \nframe=  221 fps=7.3 q=36.0 size=       1KiB time=00:00:03.63 bitrate=   1.6kbits/s speed=0.12x elapsed=0:00:30.36    \nframe=  227 fps=7.3 q=35.0 size=       1KiB time=00:00:03.76 bitrate=   1.5kbits/s speed=0.122x elapsed=0:00:30.91    \nframe=  233 fps=7.4 q=26.0 size=       1KiB time=00:00:03.86 bitrate=   1.5kbits/s speed=0.123x elapsed=0:00:31.45    \nframe=  237 fps=7.4 q=36.0 size=       1KiB time=00:00:03.93 bitrate=   1.4kbits/s speed=0.123x elapsed=0:00:31.99    \nframe=  245 fps=7.5 q=35.0 size=       1KiB time=00:00:04.06 bitrate=   1.4kbits/s speed=0.125x elapsed=0:00:32.52    \nframe=  251 fps=7.6 q=36.0 size=       1KiB time=00:00:04.13 bitrate=   1.4kbits/s speed=0.125x elapsed=0:00:33.03    \nframe=  255 fps=7.6 q=36.0 size=       1KiB time=00:00:04.23 bitrate=   1.3kbits/s speed=0.126x elapsed=0:00:33.61    \nframe=  261 fps=7.6 q=35.0 size=       1KiB time=00:00:04.33 bitrate=   1.3kbits/s speed=0.127x elapsed=0:00:34.17    \nframe=  265 fps=7.6 q=27.0 size=       1KiB time=00:00:04.40 bitrate=   1.3kbits/s speed=0.127x elapsed=0:00:34.74    \nframe=  267 fps=7.6 q=34.0 size=       1KiB time=00:00:04.43 bitrate=   1.3kbits/s speed=0.126x elapsed=0:00:35.30    \nframe=  269 fps=7.5 q=36.0 size=       1KiB time=00:00:04.46 bitrate=   1.3kbits/s speed=0.125x elapsed=0:00:35.85    \nframe=  277 fps=7.6 q=38.0 size=       1KiB time=00:00:04.60 bitrate=   1.2kbits/s speed=0.126x elapsed=0:00:36.40    \nframe=  281 fps=7.6 q=32.0 size=       1KiB time=00:00:04.66 bitrate=   1.2kbits/s speed=0.126x elapsed=0:00:36.93    \nframe=  287 fps=7.7 q=35.0 size=       1KiB time=00:00:04.76 bitrate=   1.2kbits/s speed=0.127x elapsed=0:00:37.48    \n[out#0/matroska @ 00000186de191300] video:799KiB audio:0KiB subtitle:0KiB other streams:0KiB global headers:0KiB muxing overhead: 0.259237%\nframe=  300 fps=7.9 q=43.0 Lsize=     801KiB time=00:00:04.98 bitrate=1316.2kbits/s speed=0.132x elapsed=0:00:37.85    \n",
  "seconds": 38.28615736961365,
  "probe_out": {}
}